# xmcd
#
# Track frame offsets:
#	150
#	12121
#	28599
#	42629
#	56182
#	69661
#	80485
#	93208
#	108246
#	125899
#	138856
#	153624
#	168006
#	184117
#
# Disc length: 2652 seconds
#
# Revision: 0
# Processed by: cddbd v1.5.2PL0 Copyright (c) Steve Scherf et al.
# Submitted via: EasyCDDAExtractor 2010.6.0.0
#
DISCID=ba0a5a0e
DTITLE=Various Artist - Mr Music Country  12 2011
DYEAR=2011
DGENRE=Country
TTITLE0=Ricky Skaggs - Let it be you
TTITLE1=Diamond Rio - Nowhere bound
TTITLE2=Clint Black - Where are you now
TTITLE3=John Conlee - Got my heart set on you
TTITLE4=Shenandoah - The church on Cumberland road
TTITLE5=Vern Gosdin - Set 'em up Joe
TTITLE6=John Anderson - Straight tequila night
TTITLE7=Kenny Chesney - She's got it all
TTITLE8=Collin Raye - Little Rock
TTITLE9=Exile - It'll be me
TTITLE10=David Allan Coe - Jack Daniel's, if you please
TTITLE11=Charley Pride - Burgers and fries
TTITLE12=Gretchen Wilson - Redneck woman
TTITLE13=Rodney Crowell - I couldn't leave you if I tried
EXTD=
EXTT0=
EXTT1=
EXTT2=
EXTT3=
EXTT4=
EXTT5=
EXTT6=
EXTT7=
EXTT8=
EXTT9=
EXTT10=
EXTT11=
EXTT12=
EXTT13=
PLAYORDER=
